<svg xmlns="http://www.w3.org/2000/svg" xmlns:xlink="http://www.w3.org/1999/xlink" width="16" height="16" class="icon" p-id="2613" t="1613638645426" version="1.1" viewBox="0 0 1024 1024"><defs><style type="text/css"/></defs><path fill="#fff" d="M320 480h384v-64H320zM320 608h256v-64h-256zM320 736h256v-64h-256z" p-id="2614"/><path fill="#fff" d="M832 160h-128V96H320v64H192c-19.2 0-32 12.8-32 32v704c0 19.2 12.8 32 32 32h640c19.2 0 32-12.8 32-32V192c0-19.2-12.8-32-32-32zM384 160h256v64h-256V160z m416 704H224V224h96v64h384V224h96v640z" p-id="2615"/></svg>