<svg xmlns="http://www.w3.org/2000/svg" xmlns:xlink="http://www.w3.org/1999/xlink" width="32" height="32" class="icon" p-id="4010" t="1592909804719" version="1.1" viewBox="0 0 1024 1024"><defs><style type="text/css"/></defs><path fill="#fff" d="M754.176 870.4H292.352c-46.421333 0-84.309333-36.693333-84.309333-81.92V271.701333c0-45.226667 37.888-81.92 84.309333-81.92h331.264c18.773333 0 34.133333 15.36 34.133333 34.133334s-15.36 34.133333-34.133333 34.133333H292.352c-8.874667 0-16.042667 6.144-16.042667 13.653333V788.48c0 7.509333 7.168 13.653333 16.042667 13.653333h461.824c8.874667 0 16.042667-6.144 16.042667-13.653333v-114.858667c0-18.773333 15.36-34.133333 34.133333-34.133333s34.133333 15.36 34.133333 34.133333v114.858667c0 45.226667-37.888 81.92-84.309333 81.92z" p-id="4011"/><path fill="#fff" d="M486.229333 686.421333a34.2016 34.2016 0 0 1-24.064-58.368l383.317334-383.317333c13.312-13.312 34.986667-13.312 48.298666 0s13.312 34.986667 0 48.298667L510.464 676.522667c-6.656 6.656-15.36 9.898667-24.234667 9.898666z" p-id="4012"/></svg>