<svg xmlns="http://www.w3.org/2000/svg" xmlns:xlink="http://www.w3.org/1999/xlink" width="16" height="16" class="icon" p-id="4040" t="1590048978701" version="1.1" viewBox="0 0 1024 1024"><defs><style type="text/css"/></defs><path fill="#2c2c2c" d="M900.7 432.2H548.4V109.3c0-20.2-16.5-36.7-36.7-36.7-20.2 0-36.7 16.5-36.7 36.7v322.9H122.8c-20.2 0-36.7 16.5-36.7 36.7 0 20.2 16.5 36.7 36.7 36.7h352.3v381.6c0 20.2 16.5 36.7 36.7 36.7 20.2 0 36.7-16.5 36.7-36.7V505.6h352.3c20.2 0 36.7-16.5 36.7-36.7-0.1-20.2-16.6-36.7-36.8-36.7z" p-id="4041"/></svg>