<svg xmlns="http://www.w3.org/2000/svg" xmlns:xlink="http://www.w3.org/1999/xlink" width="16" height="16" class="icon" p-id="3178" t="1613638923484" version="1.1" viewBox="0 0 1024 1024"><defs><style type="text/css"/></defs><path fill="#202020" d="M832 626.592l-128-128-128 128-256.48-256.448L192 497.632V191.872h640V626.56z m0 205.28H192V588.16l127.52-127.52L576 717.12l128-128 128 128v114.72z m0-704H128v768h768v-768h-64z" p-id="3179"/><path fill="#202020" d="M672 319.872c-17.632 0-32 14.368-32 32 0 17.6 14.368 32 32 32 17.632 0 32-14.4 32-32 0-17.632-14.368-32-32-32m0 128c-52.928 0-96-43.072-96-96s43.072-96 96-96 96 43.072 96 96-43.072 96-96 96" p-id="3180"/></svg>